<svg width="34" height="34" viewBox="0 0 34 34" fill="none" xmlns="http://www.w3.org/2000/svg">
<g clip-path="url(#clip0_0_817)">
<path d="M14.1668 14.1667C15.5598 12.7736 17.2126 11.6816 19.1251 10.8906C21.0376 10.0997 23.08 9.73961 25.2522 9.81044C25.5355 9.81044 25.7716 9.90489 25.9605 10.0938C26.1494 10.2827 26.2438 10.5188 26.2438 10.8021L26.2084 14.025C26.2084 14.2847 26.1287 14.5061 25.9694 14.6891C25.81 14.8721 25.6063 14.9813 25.3584 15.0167L21.7459 15.5125C21.5806 15.5361 21.4272 15.5243 21.2855 15.4771C21.1438 15.4299 21.014 15.3472 20.8959 15.2292L18.8772 13.2104C18.2869 13.5174 17.7143 13.8656 17.1595 14.2552C16.6046 14.6448 16.0793 15.0875 15.5834 15.5834C15.0876 16.0792 14.6449 16.6045 14.2553 17.1594C13.8657 17.7143 13.5175 18.2868 13.2105 18.8771L15.2293 20.8958C15.3473 21.0139 15.43 21.1438 15.4772 21.2854C15.5244 21.4271 15.5362 21.5806 15.5126 21.7458L15.0168 25.3583C14.9814 25.6063 14.8721 25.8099 14.6892 25.9693C14.5062 26.1287 14.2848 26.2083 14.0251 26.2083L10.8022 26.2438C10.5189 26.2438 10.2827 26.1493 10.0939 25.9604C9.90497 25.7715 9.81052 25.5354 9.81052 25.2521C9.72788 23.0917 10.085 21.0523 10.8819 19.1339C11.6787 17.2155 12.7737 15.5597 14.1668 14.1667Z" fill="#9C6B02"/>
</g>
<defs>
<clipPath id="clip0_0_817">
<rect width="24" height="24" fill="white" transform="translate(0 17) scale(1.00173) rotate(-45)"/>
</clipPath>
</defs>
</svg>
